<?xml version="1.0" encoding="utf-8"?>
<!-- Generator: Adobe Illustrator 28.5.0, SVG Export Plug-In . SVG Version: 9.03 Build 54727)  -->
<svg version="1.0" id="letter" xmlns="http://www.w3.org/2000/svg" xmlns:xlink="http://www.w3.org/1999/xlink" x="0px" y="0px"
	 viewBox="0 0 561.8 412.9" style="enable-background:new 0 0 561.8 412.9;" xml:space="preserve">
<style type="text/css">
	.st0{fill:none;stroke:#000000;stroke-width:13.5803;stroke-miterlimit:10;}
	.st1{fill:#F9BE22;}

#smiley {
	animation-name: spin;
	animation-duration: 5s;
	animation-delay: 3s;
	animation-iteration-count: infinite;
	transform-origin: center;

}

@keyframes spin {
	0% {
		transform: rotate(0deg);
	}
	
	50%,100% {
		transform: rotate(360deg);
	}

}

</style>
<path class="st0" d="M508.4,56.2l-7-32.6c-2.7-12.8-15.4-21-28.2-18.2L27.5,100.9c-12.8,2.7-21,15.4-18.2,28.2l7,32.6"/>
<path class="st0" d="M508.4,56.2L556.3,280c2.7,12.8-5.4,25.4-18.2,28.2L92.3,403.7c-12.8,2.7-25.4-5.4-28.2-18.2L16.2,161.6"/>
<path d="M512.5,61.7L353.8,180.4l-10.4,7.8c-0.9-2.1-2-4.2-3.1-6.1l0,0l-0.1-0.1l0,0c-1.1-1.9-2.3-3.8-3.6-5.6l9.8-7.4l0.3-0.2
	l157.6-118L512.5,61.7z"/>
<polygon points="218.5,202.6 206.3,199.8 15.7,156.9 12.8,170.1 203.7,213.1 204.6,213.3 216,215.8 217.5,209.3 "/>
<g id="smiley">
	<g id="XMLID_00000150097007020882936580000009608011452492995986_">
		<g>
			<path d="M357.9,199.8c8.9,41.4-17.6,82.2-59,91.1s-82.2-17.6-91.1-59c-1.8-8.5-2.1-17.1-1.1-25.3c3.8-31.6,27.3-58.8,60.1-65.8
				c30.5-6.5,60.7,6.1,78,29.8c1.3,1.8,2.6,3.7,3.8,5.6c1.2,1.9,2.3,4,3.3,6C354.6,187.8,356.6,193.6,357.9,199.8z M296.3,278.5
				c34.5-7.4,56.6-41.5,49.2-76.1c-0.9-4.3-2.3-8.5-4-12.4c-0.9-2.1-2-4.2-3.1-6.1l0,0c0,0,0,0,0-0.1l0,0c-1.1-1.9-2.3-3.8-3.6-5.6
				c-14.5-19.8-39.7-30.4-65.2-25c-27.8,6-47.6,29.3-50.3,56.2c-0.7,6.5-0.3,13.1,1.1,19.8C227.7,263.9,261.8,285.9,296.3,278.5z"/>
			<path class="st1" d="M345.6,202.5c7.4,34.5-14.7,68.7-49.2,76.1s-68.7-14.7-76.1-49.2c-1.4-6.7-1.8-13.4-1.1-19.8
				c2.7-26.9,22.5-50.3,50.3-56.2c25.5-5.5,50.8,5.2,65.2,25c1.3,1.8,2.5,3.7,3.6,5.6l0,0v0.1l0,0c1.1,2,2.2,4,3.1,6.1
				C343.3,194,344.6,198.1,345.6,202.5z"/>
		</g>
	</g>
	<rect x="262.4" y="219.6" transform="matrix(0.9778 -0.2094 0.2094 0.9778 -42.7106 61.0909)" width="9.5" height="25.3"/>
	<rect x="299.2" y="211.7" transform="matrix(0.9778 -0.2094 0.2094 0.9778 -40.2438 68.6224)" width="9.5" height="25.3"/>
	<path d="M335.4,204.6c6.2,29-12.3,57.6-41.3,63.8c-29,6.2-57.6-12.3-63.8-41.3l8.7-1.9c5.2,24.2,29.1,39.6,53.2,34.5
		c24.2-5.2,39.6-29.1,34.5-53.2L335.4,204.6z"/>
</g>
</svg>
