<?xml version="1.0" encoding="utf-8"?>
<!-- Generator: Adobe Illustrator 28.5.0, SVG Export Plug-In . SVG Version: 9.03 Build 54727)  -->
<svg version="1.0" id="Layer_1" xmlns="http://www.w3.org/2000/svg" xmlns:xlink="http://www.w3.org/1999/xlink" x="0px" y="0px"
	 viewBox="0 0 291 291" style="enable-background:new 0 0 291 291;" xml:space="preserve">
<path d="M145.5,291C65.3,291,0,225.7,0,145.5C0,65.3,65.3,0,145.5,0C225.7,0,291,65.3,291,145.5C291,225.7,225.7,291,145.5,291z
	 M145.5,24C78.5,24,24,78.5,24,145.5S78.5,267,145.5,267S267,212.5,267,145.5S212.5,24,145.5,24z"/>
<path d="M145.5,247.4c-56.2,0-101.9-45.7-101.9-101.9h16.8c0,46.9,38.2,85,85.1,85c46.9,0,85-38.2,85-85h16.8
	C247.4,201.7,201.7,247.4,145.5,247.4z"/>
<rect x="100.7" y="145.5" width="18" height="48"/>
<rect x="172.3" y="145.5" width="18" height="48"/>
</svg>
