<?xml version="1.0" encoding="utf-8"?>
<!-- Generator: Adobe Illustrator 28.5.0, SVG Export Plug-In . SVG Version: 9.03 Build 54727)  -->
<svg version="1.0" id="Smiley" xmlns="http://www.w3.org/2000/svg" xmlns:xlink="http://www.w3.org/1999/xlink" x="0px" y="0px"
	 viewBox="0 0 265.1 265.1" style="enable-background:new 0 0 265.1 265.1;" xml:space="preserve">
<style type="text/css">
	.st0{fill:#FFCC33;}
	.st1{fill:#231F20;}

	#mounth, #eyes { 
		animation-name: animate;
		animation-iteration-count: infinite;
		animation-duration: 5s;
		transition: all .3s ease-in-out;
		transform-origin: center;
	}

	#body { 
		animation-name: fade;
		animation-iteration-count: infinite;
		animation-duration: 5s;
		transition: all .3s ease-in;
		transform-origin: center;
	}


@keyframes animate {
  0%, 100% {
	transform: translateY(0) scale(1);
  }

  50% {
    transform: translateY(-20px) scale(0.5);
  }
}

@keyframes fade {
	0%, 100% {
		opacity: 1;
	}

	30%, 60% {
		opacity: 0;
	}
}

</style>
<g id="body">
	<g>
		<path class="st0" d="M254.8,132.5c0,4-0.2,8-0.6,11.9c-6,61.9-58.3,110.4-121.7,110.4c-63.4,0-115.7-48.5-121.7-110.4
			c-0.4-3.9-0.6-7.9-0.6-11.9c0-67.4,54.8-122.3,122.3-122.3C199.9,10.3,254.8,65.1,254.8,132.5z"/>
		<path class="st1" d="M264.8,132.5c0,4-0.2,8-0.5,11.9c-6,67.4-62.8,120.4-131.8,120.4S6.8,211.8,0.8,144.4
			c-0.3-3.9-0.5-7.9-0.5-11.9C0.2,59.6,59.6,0.3,132.5,0.3S264.8,59.6,264.8,132.5z M254.2,144.4c0.4-3.9,0.6-7.9,0.6-11.9
			c0-67.4-54.9-122.3-122.3-122.3c-67.4,0-122.3,54.9-122.3,122.3c0,4,0.2,8,0.6,11.9c6,61.9,58.3,110.4,121.7,110.4
			C195.9,254.8,248.2,206.3,254.2,144.4z"/>
	</g>
	<g>
	</g>
</g>
<path id="mounth" class="st1" d="M229.6,144.4c-5.9,48.4-47.2,85.9-97.1,85.9s-91.2-37.6-97.1-85.9h-8.1
	c5.9,52.8,50.8,93.9,105.1,93.9s99.2-41.2,105.2-93.9H229.6z"/>
<g id="eyes">
	<g>
		<line class="st1" x1="93.1" y1="144.4" x2="93.1" y2="191.4"/>
		<rect x="86.4" y="144.4" class="st1" width="13.5" height="47"/>
	</g>
	<g>
		<line class="st1" x1="171.5" y1="144.4" x2="171.5" y2="191.4"/>
		<rect x="164.8" y="144.4" class="st1" width="13.4" height="47"/>
	</g>
</g>
</svg>
